<svg viewBox="0 0 100 100" fill="none" xmlns="http://www.w3.org/2000/svg" width="100%" height="100%">
  <rect width="100" height="100" rx="22" fill="#1B4332"/>
  <circle cx="50" cy="50" r="44" stroke="#D4A853" stroke-width="3" />
  <circle cx="50" cy="50" r="39" stroke="#FFFFFF" stroke-width="0.75" stroke-dasharray="2 3" opacity="0.5" />
  <path
    d="M50 18 C 40 28, 32 40, 34 56 C 36 72, 48 80, 50 80 C 52 80, 64 72, 66 56 C 68 40, 60 28, 50 18 Z"
    fill="#2D6A4F"
    opacity="0.6"
  />
  <g transform="translate(50, 50)">
    <path d="M0 0 C -12 -30, 4 -38, 14 -30 C 22 -22, 12 -8, 0 0" fill="#FFFFFF" stroke="#D4A853" stroke-width="0.8"/>
    <g transform="rotate(72)"><path d="M0 0 C -12 -30, 4 -38, 14 -30 C 22 -22, 12 -8, 0 0" fill="#FFFFFF" stroke="#D4A853" stroke-width="0.8"/></g>
    <g transform="rotate(144)"><path d="M0 0 C -12 -30, 4 -38, 14 -30 C 22 -22, 12 -8, 0 0" fill="#FFFFFF" stroke="#D4A853" stroke-width="0.8"/></g>
    <g transform="rotate(216)"><path d="M0 0 C -12 -30, 4 -38, 14 -30 C 22 -22, 12 -8, 0 0" fill="#FFFFFF" stroke="#D4A853" stroke-width="0.8"/></g>
    <g transform="rotate(288)"><path d="M0 0 C -12 -30, 4 -38, 14 -30 C 22 -22, 12 -8, 0 0" fill="#FFFFFF" stroke="#D4A853" stroke-width="0.8"/></g>
    <circle cx="0" cy="0" r="7.5" fill="#D4A853"/>
    <circle cx="0" cy="0" r="4.5" fill="#E5A93C"/>
    <circle cx="0" cy="0" r="2.2" fill="#FFFFFF"/>
  </g>
</svg>
